<?xml version="1.0" standalone="no"?><!DOCTYPE svg PUBLIC "-//W3C//DTD SVG 1.1//EN" "http://www.w3.org/Graphics/SVG/1.1/DTD/svg11.dtd"><svg t="1705485735733" class="icon" viewBox="0 0 1309 1024" version="1.1" xmlns="http://www.w3.org/2000/svg" p-id="4457" xmlns:xlink="http://www.w3.org/1999/xlink" width="255.6640625" height="200"><path d="M913.214816 228.147514l-377.514727-217.954106a76.08461 76.08461 0 0 0-76.08461 0L82.100752 228.147514A76.066167 76.066167 0 0 0 44.051353 294.045894v435.908212c0 27.182195 14.499062 52.307283 38.049399 65.89838l377.528914 217.954106a76.08461 76.08461 0 0 0 76.08461 0l377.528914-217.954106a76.141358 76.141358 0 0 0 38.049398-65.89838V294.045894c-0.028374-27.182195-14.527436-52.307283-38.077772-65.89838zM643.393223 713.128383c-37.453547 29.962837-82.397803 44.944256-134.832768 44.944257-81.035856 0-141.642504-25.876996-181.138972-76.269041-34.729652-43.582309-51.753992-102.146037-51.753992-175.691183 0-72.183199 17.705313-131.4279 53.796913-176.372157 40.858415-51.753992 100.103116-76.950014 177.734104-76.950014 57.20178 0 104.869931 14.981419 141.642504 44.944256 35.410626 28.60089 56.520807 68.097358 64.011516 117.127456H635.22154c-8.171683-32.005758-23.153102-55.15886-45.62523-70.140279-21.791154-14.981419-49.711071-21.791154-83.75975-21.791154-51.073018 0-89.207539 17.024339-115.084534 52.434965-23.834075 31.324785-35.410626 74.907093-35.410626 130.746927 0 57.20178 11.576551 101.465063 34.729652 132.108874 25.196022 32.686732 64.69249 49.711071 117.808429 49.711071 34.729652 0 63.330543-8.852657 85.121697-25.196022 23.153102-18.386287 39.496467-46.306203 49.030098-83.078777h77.630988c-10.895577 57.187594-36.0916 101.465063-76.269041 133.470821z m0 0" p-id="4458"></path></svg>